# xmcd
#
# Track frame offsets:
#	150
#	13284
#	27617
#	42206
#	56483
#	71191
#	87036
#	101199
#	114520
#	128859
#	141650
#	154239
#	168813
#
# Disc length: 2429 seconds
#
# Revision: 4
# Processed by: cddbd v1.5.2PL0 Copyright (c) Steve Scherf et al.
# Submitted via: EasyCDDAExtractor 10.0.2.1
#
DISCID=bb097b0d
DTITLE=Garotos de Ouro - Filinho do Papai
DYEAR=1900
DGENRE=Tchemusic
TTITLE0=Filinho do Papai
TTITLE1=A gaia
TTITLE2=Desejos
TTITLE3=Coisa de cinema
TTITLE4=Dança do siri
TTITLE5=Moldura
TTITLE6=Vírus da paixão
TTITLE7=Tô passado
TTITLE8=Pra me encher de amor
TTITLE9=Curte esse som
TTITLE10=Conheço e como
TTITLE11=Tum tum tum
TTITLE12=Deixa eu te amar
EXTD=
EXTT0=
EXTT1=
EXTT2=
EXTT3=
EXTT4=
EXTT5=
EXTT6=
EXTT7=
EXTT8=
EXTT9=
EXTT10=
EXTT11=
EXTT12=
PLAYORDER=
